# 3ds Max Wavefront OBJ Exporter v0.97b - (c)2007 guruware
# File Created: 08.01.2021 21:13:47

mtllib barra.mtl

#
# object kitchen_island
#

#
# object Object001
#

#
# object Object002
#

v  -54.3861 104.0934 -96.9206
v  -54.3861 112.0934 -96.9206
v  -54.3861 112.0933 103.0794
v  -54.3861 104.0933 103.0794
v  -72.3861 103.8994 103.1314
v  -72.3861 103.8995 -96.8686
v  -72.3861 88.8995 -96.8686
v  -72.3861 88.8994 103.1314
v  -99.3861 112.0933 103.0794
v  -99.3861 112.0934 -96.9206
v  -64.3861 103.8995 -96.8686
v  -64.3861 103.8994 103.1314
v  -64.3861 88.8994 103.1314
v  -64.3861 88.8995 -96.8686
v  -99.3861 104.0934 -96.9206
v  -99.3861 104.0933 103.0794
# 16 vertices

vn 1.0000 0.0000 -0.0000
vn -1.0000 0.0000 -0.0000
vn 0.0000 1.0000 0.0000
vn -0.0000 1.0000 0.0000
vn 0.0000 0.0000 -1.0000
vn 0.0019 0.0000 -1.0000
vn 0.0000 -0.0063 -1.0000
vn -0.0052 0.0000 -1.0000
vn -1.0000 0.0000 0.0000
vn 0.0194 -0.9998 -0.0000
vn -0.0072 -1.0000 -0.0000
vn 0.0000 -1.0000 -0.0000
vn 0.0000 0.0000 1.0000
vn 0.0000 0.2591 0.9658
vn -0.0014 0.0081 1.0000
vn 0.0052 0.0000 1.0000
# 16 vertex normals

vt 0.8922 0.6047 0.0000
vt 0.9055 0.6047 0.0000
vt 0.9055 0.9999 0.0000
vt 0.8922 0.9999 0.0000
vt 0.7697 0.9999 0.0000
vt 0.7697 0.6047 0.0000
vt 0.7946 0.6047 0.0000
vt 0.7946 0.9999 0.0000
vt 0.0000 0.6047 0.0000
vt 0.0746 0.6047 0.0000
vt 0.0746 0.9999 0.0000
vt 0.0000 0.9999 0.0000
vt 0.7448 0.9999 0.0000
vt 0.7448 0.6047 0.0000
vt 0.6940 0.7845 0.0000
vt 0.7189 0.7845 0.0000
vt 0.7189 0.8003 0.0000
vt 0.6940 0.8003 0.0000
vt 0.6937 0.8537 0.0000
vt 0.6805 0.8537 0.0000
vt 0.6805 0.7647 0.0000
vt 0.6937 0.7647 0.0000
vt 0.8789 0.6047 0.0000
vt 0.8789 0.9999 0.0000
vt 0.7960 1.0000 0.0000
vt 0.7960 0.6048 0.0000
vt 0.8126 0.6047 0.0000
vt 0.8126 0.9999 0.0000
vt 0.3433 0.9999 0.0000
vt 0.3433 0.6047 0.0000
vt 0.3881 0.6048 0.0000
vt 0.3881 1.0000 0.0000
vt 0.8657 0.9999 0.0000
vt 0.8657 0.6047 0.0000
vt 0.6420 0.8537 0.0000
vt 0.6420 0.7647 0.0000
vt 0.6553 0.7647 0.0000
vt 0.6556 0.8181 0.0000
vt 0.6805 0.8181 0.0000
vt 0.6805 0.8339 0.0000
vt 0.6556 0.8339 0.0000
vt 0.6553 0.8537 0.0000
# 42 texture coords

o Object002
g Object002
usemtl Material__34
s off
f 1/1/1 2/2/1 3/3/1 
f 3/3/1 4/4/1 1/1/1 
f 5/5/2 6/6/2 7/7/2 
f 7/7/2 8/8/2 5/5/2 
f 9/9/3 3/10/3 2/11/3 
f 2/11/4 10/12/4 9/9/4 
f 11/13/1 12/14/1 13/6/1 
f 13/6/1 14/5/1 11/13/1 
f 11/15/5 14/16/5 7/17/5 
f 11/15/5 7/17/5 6/18/5 
f 6/18/6 15/19/6 10/20/6 
f 11/15/7 6/18/7 10/20/7 
f 11/15/7 10/20/7 2/21/7 
f 11/15/8 2/21/8 1/22/8 
f 16/23/9 9/1/9 10/4/9 
f 10/4/9 15/24/9 16/23/9 
f 1/25/10 4/26/10 12/27/10 
f 12/27/10 11/28/10 1/25/10 
f 6/29/11 5/30/11 16/31/11 
f 16/31/11 15/32/11 6/29/11 
f 14/33/12 13/34/12 8/23/12 
f 8/23/12 7/24/12 14/33/12 
f 3/35/13 9/36/13 16/37/13 
f 5/38/13 8/39/13 13/40/13 
f 5/38/13 13/40/13 12/41/13 
f 16/37/14 5/38/14 12/41/14 
f 3/35/15 16/37/15 12/41/15 
f 3/35/16 12/41/16 4/42/16 
# 28 faces

#
# object Object003
#

v  1.2798 -0.8486 208.8002
v  -73.7202 -0.8486 208.8002
v  -73.7203 -0.8485 -97.1997
v  1.2797 -0.8486 -97.1997
v  -73.7202 87.1514 208.8002
v  -73.7202 5.1514 208.8002
v  1.2798 5.1514 208.8002
v  4.2798 5.1514 208.8002
v  4.2798 87.1514 208.8002
v  1.2797 5.1514 -97.1997
v  -73.7203 5.1515 -97.1997
v  -73.7203 87.1514 -97.1997
v  4.2797 87.1514 -97.1997
v  4.2797 5.1514 -97.1997
v  4.2798 5.1514 205.8002
v  4.2798 82.1514 205.8002
v  4.2798 87.1514 205.8002
v  4.2797 5.1514 -94.1998
v  4.2797 5.1514 -35.0781
v  4.2797 5.1514 -34.1997
v  4.2798 5.1514 54.9806
v  4.2798 5.1514 55.8002
v  4.2798 5.1515 144.8909
v  4.2798 5.1515 145.8002
v  -73.7202 89.1514 208.8002
v  7.2798 87.1514 208.8002
v  7.2798 89.1514 208.8002
v  -73.7203 89.1515 -97.1997
v  7.2797 89.1514 -97.1997
v  7.2797 87.1514 -97.1997
v  4.2798 87.1514 145.8002
v  4.2798 87.1514 144.8909
v  4.2797 87.1514 55.8002
v  4.2797 87.1514 54.9806
v  4.2797 87.1514 -34.1997
v  4.2797 87.1514 -35.0781
v  4.2797 87.1514 -94.1998
v  4.2797 82.1514 54.9806
v  4.2797 82.1514 55.8002
v  4.2798 82.1514 145.8002
v  4.2798 82.1514 144.8909
v  4.2797 82.1514 -94.1998
v  4.2797 82.1514 -35.0781
v  4.2797 82.1514 -34.1997
v  4.2798 40.1514 55.8002
v  7.2797 42.1514 55.8002
v  7.2797 5.1514 55.8002
v  7.2797 5.1514 54.9806
v  7.2797 42.1514 54.9806
v  4.2798 40.1514 54.9806
v  7.2797 5.1514 -35.0781
v  7.2797 84.1514 -35.0781
v  4.2797 67.1514 -34.1997
v  4.2797 66.3054 -34.1997
v  4.2797 47.1514 -34.1997
v  4.2797 40.1514 -34.1997
v  4.2798 40.1514 144.8909
v  4.2798 47.1514 144.8909
v  4.2798 66.3004 144.8909
v  4.2798 67.1514 144.8909
v  4.2798 47.1514 55.8002
v  7.2797 45.1514 55.8002
v  7.2798 45.1514 144.8909
v  4.2798 47.1514 54.9806
v  4.2798 66.3054 54.9806
v  4.2798 67.1514 54.9806
v  4.2798 67.1514 55.8002
v  4.2798 66.3004 55.8002
v  7.2797 42.1514 -34.1997
v  7.2797 5.1514 -34.1997
v  7.2797 67.1514 54.9806
v  7.2797 84.1514 54.9806
v  7.2797 45.1514 -34.1997
v  7.2797 45.1514 54.9806
v  7.2798 67.1514 144.8909
v  7.2798 84.1514 144.8909
v  7.2797 5.1514 -94.1998
v  7.2797 84.1514 -94.1998
v  7.2797 67.1514 -34.1997
v  7.2797 84.1514 -34.1997
v  7.2797 67.1514 55.8002
v  7.2797 84.1514 55.8002
v  7.2798 5.1515 145.8002
v  7.2798 84.1514 145.8002
v  7.2798 84.1514 205.8002
v  7.2798 5.1514 205.8002
v  7.2798 42.1514 144.8909
v  7.2798 5.1515 144.8909
v  7.2797 66.3004 55.8002
v  7.2798 66.3004 144.8909
v  7.2797 66.3054 -34.1997
v  7.2797 66.3054 54.9806
# 92 vertices

vn 0.0000 -1.0000 -0.0000
vn -0.0000 -1.0000 0.0000
vn 0.0000 0.0000 1.0000
vn 1.0000 0.0000 -0.0000
vn -1.0000 0.0000 0.0000
vn 0.0000 0.0000 -1.0000
vn -1.0000 -0.0000 0.0000
vn -0.0000 -1.0000 -0.0000
vn 0.0000 1.0000 0.0000
vn 0.0000 1.0000 -0.0000
vn 1.0000 0.0000 0.0000
vn -1.0000 0.0000 -0.0000
vn -0.1201 -0.0000 0.9928
vn -0.5547 -0.8320 0.0000
vn 0.0000 0.0000 -0.0000
vn 0.7071 0.0000 0.7071
vn 1.0000 0.0000 -0.0001
vn 0.0000 -0.0000 1.0000
vn -0.5547 -0.8321 0.0000
vn -0.5547 0.8321 -0.0000
vn -0.5547 0.8320 0.0000
vn -0.5547 0.8321 0.0000
vn -0.5547 0.8320 -0.0000
vn -0.0000 0.0000 -1.0000
vn 0.0000 -1.0000 0.0000
# 25 vertex normals

vt 0.6882 0.0000 0.0000
vt 0.8126 0.0000 0.0000
vt 0.8126 0.6047 0.0000
vt 0.6882 0.6047 0.0000
vt 0.0746 0.7786 0.0000
vt 0.0746 0.6165 0.0000
vt 0.1990 0.6165 0.0000
vt 0.2040 0.6165 0.0000
vt 0.2040 0.7786 0.0000
vt 0.9818 0.0000 0.0000
vt 0.9917 0.0000 0.0000
vt 0.9917 0.6047 0.0000
vt 0.9818 0.6047 0.0000
vt 0.1493 0.6047 0.0000
vt 0.1393 0.6047 0.0000
vt 0.1393 0.0000 0.0000
vt 0.1493 0.0000 0.0000
vt 0.2090 0.7825 0.0000
vt 0.2090 0.7707 0.0000
vt 0.3333 0.7707 0.0000
vt 0.3333 0.7825 0.0000
vt 0.1990 0.6047 0.0000
vt 0.0746 0.6047 0.0000
vt 0.2090 0.6086 0.0000
vt 0.3383 0.6086 0.0000
vt 0.3383 0.7707 0.0000
vt 0.0033 0.6047 0.0000
vt 0.0033 0.0000 0.0000
vt 0.2852 0.0059 0.0000
vt 0.1575 0.0059 0.0000
vt 0.1493 0.0059 0.0000
vt 0.2852 0.0000 0.0000
vt 0.9768 0.6047 0.0000
vt 0.9768 0.5988 0.0000
vt 0.9768 0.4819 0.0000
vt 0.9768 0.4802 0.0000
vt 0.9768 0.3040 0.0000
vt 0.9768 0.3023 0.0000
vt 0.9768 0.1263 0.0000
vt 0.9768 0.1245 0.0000
vt 0.9768 0.0059 0.0000
vt 0.9768 0.0000 0.0000
vt 0.0746 0.7825 0.0000
vt 0.2090 0.7786 0.0000
vt 0.2090 0.6047 0.0000
vt 0.3433 0.6047 0.0000
vt 0.3433 0.6086 0.0000
vt 0.0000 0.6047 0.0000
vt 0.0000 0.0000 0.0000
vt 1.0000 0.6047 0.0000
vt 0.9967 0.6047 0.0000
vt 0.9967 0.0000 0.0000
vt 1.0000 0.0000 0.0000
vt 0.9917 0.5988 0.0000
vt 0.9917 0.4802 0.0000
vt 0.9917 0.4784 0.0000
vt 0.9917 0.3023 0.0000
vt 0.9917 0.3007 0.0000
vt 0.9917 0.1245 0.0000
vt 0.9917 0.1228 0.0000
vt 0.9917 0.0059 0.0000
vt 0.5539 0.6047 0.0000
vt 0.5539 0.0000 0.0000
vt 0.1575 0.3040 0.0000
vt 0.1493 0.3040 0.0000
vt 0.1493 0.3023 0.0000
vt 0.1575 0.3023 0.0000
vt 0.1575 0.1245 0.0000
vt 0.1493 0.1245 0.0000
vt 0.1575 0.1263 0.0000
vt 0.1493 0.1263 0.0000
vt 0.2852 0.6047 0.0000
vt 0.1493 0.5988 0.0000
vt 0.1575 0.5988 0.0000
vt 0.2852 0.5988 0.0000
vt 0.1575 0.4819 0.0000
vt 0.1493 0.4819 0.0000
vt 0.1493 0.4802 0.0000
vt 0.1575 0.4802 0.0000
vt 0.1393 0.7865 0.0000
vt 0.1443 0.7825 0.0000
vt 0.1443 0.8556 0.0000
vt 0.1393 0.8556 0.0000
vt 0.1343 0.8556 0.0000
vt 0.1343 0.7825 0.0000
vt 0.1095 0.7825 0.0000
vt 0.1144 0.7825 0.0000
vt 0.1144 0.9386 0.0000
vt 0.1095 0.9347 0.0000
vt 0.2852 0.4819 0.0000
vt 0.1824 0.4802 0.0000
vt 0.1838 0.4802 0.0000
vt 0.2156 0.4802 0.0000
vt 0.2272 0.4802 0.0000
vt 0.2852 0.4802 0.0000
vt 0.2852 0.1263 0.0000
vt 0.2272 0.1263 0.0000
vt 0.2156 0.1263 0.0000
vt 0.1838 0.1263 0.0000
vt 0.1824 0.1263 0.0000
vt 0.2852 0.1245 0.0000
vt 0.0995 0.9586 0.0000
vt 0.0945 0.9586 0.0000
vt 0.0945 0.7825 0.0000
vt 0.0995 0.7825 0.0000
vt 0.2852 0.3040 0.0000
vt 0.2272 0.3040 0.0000
vt 0.2156 0.3040 0.0000
vt 0.1838 0.3040 0.0000
vt 0.1824 0.3040 0.0000
vt 0.1824 0.3023 0.0000
vt 0.1838 0.3023 0.0000
vt 0.2156 0.3023 0.0000
vt 0.2272 0.3023 0.0000
vt 0.2852 0.3023 0.0000
vt 0.1443 0.7865 0.0000
vt 0.1493 0.7825 0.0000
vt 0.1493 0.8556 0.0000
vt 0.1891 0.8161 0.0000
vt 0.1841 0.8161 0.0000
vt 0.1841 0.7825 0.0000
vt 0.1891 0.7865 0.0000
vt 0.7448 0.9410 0.0000
vt 0.7398 0.9410 0.0000
vt 0.7398 0.7647 0.0000
vt 0.7448 0.7647 0.0000
vt 0.1741 0.8161 0.0000
vt 0.1692 0.8161 0.0000
vt 0.1692 0.7825 0.0000
vt 0.1741 0.7865 0.0000
vt 0.4876 0.7608 0.0000
vt 0.4876 0.6047 0.0000
vt 0.5856 0.6047 0.0000
vt 0.5856 0.7608 0.0000
vt 0.6138 0.9410 0.0000
vt 0.5856 0.9410 0.0000
vt 0.5856 0.7647 0.0000
vt 0.6138 0.7647 0.0000
vt 0.6420 0.9408 0.0000
vt 0.6138 0.9408 0.0000
vt 0.6420 0.7647 0.0000
vt 0.3881 0.7608 0.0000
vt 0.3881 0.6047 0.0000
vt 0.5856 0.9368 0.0000
vt 0.5242 0.9368 0.0000
vt 0.5242 0.7608 0.0000
vt 0.4892 0.7608 0.0000
vt 0.4892 0.9368 0.0000
vt 0.4494 0.7608 0.0000
vt 0.4494 0.9370 0.0000
vt 0.3881 0.9370 0.0000
vt 0.4845 0.7608 0.0000
vt 0.4845 0.9370 0.0000
vt 0.1244 0.7825 0.0000
vt 0.1294 0.7825 0.0000
vt 0.1294 0.8994 0.0000
vt 0.1244 0.8994 0.0000
vt 0.7189 0.7647 0.0000
vt 0.7239 0.7647 0.0000
vt 0.7239 0.9410 0.0000
vt 0.7189 0.9410 0.0000
vt 0.1294 0.8556 0.0000
vt 0.1343 0.7865 0.0000
vt 0.7289 0.7647 0.0000
vt 0.7338 0.7647 0.0000
vt 0.7338 0.9410 0.0000
vt 0.7289 0.9410 0.0000
vt 0.1542 0.7825 0.0000
vt 0.1592 0.7825 0.0000
vt 0.1592 0.8243 0.0000
vt 0.1542 0.8204 0.0000
vt 0.0896 0.7825 0.0000
vt 0.0896 0.9586 0.0000
vt 0.9718 0.1245 0.0000
vt 0.9718 0.0059 0.0000
vt 0.0796 0.7825 0.0000
vt 0.0846 0.7825 0.0000
vt 0.0846 0.9586 0.0000
vt 0.0796 0.9586 0.0000
vt 0.1493 0.7865 0.0000
vt 0.1542 0.8243 0.0000
vt 0.1493 0.8243 0.0000
vt 0.1642 0.7825 0.0000
vt 0.1692 0.8243 0.0000
vt 0.1642 0.8204 0.0000
vt 0.1592 0.7865 0.0000
vt 0.1642 0.8243 0.0000
vt 0.9718 0.5988 0.0000
vt 0.9718 0.4819 0.0000
vt 0.1194 0.7825 0.0000
vt 0.1244 0.9011 0.0000
vt 0.1194 0.9011 0.0000
vt 0.1791 0.7825 0.0000
vt 0.1791 0.8161 0.0000
vt 0.1194 0.9386 0.0000
vt 0.1144 0.9347 0.0000
vt 0.0995 0.7865 0.0000
vt 0.1045 0.7825 0.0000
vt 0.1045 0.9386 0.0000
vt 0.0995 0.9386 0.0000
vt 0.7388 0.9410 0.0000
vt 0.7388 0.7647 0.0000
vt 0.9718 0.4802 0.0000
vt 0.9718 0.3040 0.0000
vt 0.1045 0.7865 0.0000
vt 0.1095 0.9386 0.0000
vt 0.0746 0.9586 0.0000
vt 0.9718 0.3023 0.0000
vt 0.9718 0.1263 0.0000
vt 0.1791 0.7865 0.0000
# 210 texture coords

o Object003
g Object003
usemtl Material__35
s off
f 17/43/17 18/44/17 19/45/17 
f 19/45/18 20/46/18 17/43/18 
f 21/47/19 22/48/19 23/49/19 
f 21/47/19 23/49/19 24/50/19 
f 21/47/19 24/50/19 25/51/19 
f 20/52/20 26/53/20 23/54/20 
f 23/54/20 17/55/20 20/52/20 
f 18/56/21 22/57/21 27/58/21 
f 27/58/21 19/59/21 18/56/21 
f 19/60/22 27/61/22 26/62/22 
f 26/62/22 20/63/22 19/60/22 
f 17/64/19 23/49/19 22/48/19 
f 22/48/19 18/65/19 17/64/19 
f 26/62/22 27/61/22 28/66/22 
f 26/62/22 28/66/22 29/67/22 
f 26/62/22 29/67/22 30/68/22 
f 22/57/23 21/69/23 28/70/23 
f 28/70/21 27/58/21 22/57/21 
f 31/71/22 32/72/22 33/73/22 
f 31/71/20 33/73/20 25/59/20 
f 31/71/20 25/59/20 24/74/20 
f 26/55/17 30/75/17 34/76/17 
f 26/55/17 34/76/17 35/77/17 
f 26/55/17 35/77/17 36/78/17 
f 26/55/17 36/78/17 37/79/17 
f 26/55/17 37/79/17 38/80/17 
f 26/55/18 38/80/18 39/81/18 
f 26/55/17 39/81/17 40/82/17 
f 26/55/17 40/82/17 31/83/17 
f 26/55/17 31/83/17 24/84/17 
f 26/55/17 24/84/17 23/52/17 
f 41/85/19 21/47/19 25/51/19 
f 41/85/19 25/51/19 42/86/19 
f 41/85/19 42/86/19 43/60/19 
f 29/67/22 28/66/22 44/87/22 
f 29/67/22 44/87/22 45/88/22 
f 29/67/22 45/88/22 46/89/22 
f 21/69/21 41/90/21 44/91/21 
f 44/91/21 28/70/21 21/69/21 
f 46/92/20 45/93/20 43/94/20 
f 43/94/20 42/95/20 46/92/20 
f 46/94/17 42/93/17 25/54/17 
f 46/94/17 25/54/17 33/96/17 
f 46/94/17 33/96/17 47/97/17 
f 46/94/17 47/97/17 48/98/17 
f 46/94/24 48/98/24 49/99/24 
f 46/94/17 49/99/17 50/100/17 
f 46/94/17 50/100/17 51/101/17 
f 46/94/17 51/101/17 52/102/17 
f 46/94/17 52/102/17 53/103/17 
f 29/53/17 46/94/17 53/103/17 
f 44/43/25 41/46/25 43/104/25 
f 43/104/26 45/105/26 44/43/26 
f 54/106/20 50/107/20 49/108/20 
f 49/108/20 55/109/20 54/106/20 
f 56/110/20 47/111/20 33/73/20 
f 33/73/20 32/72/20 56/110/20 
f 57/112/20 48/113/20 47/111/20 
f 47/111/20 56/110/20 57/112/20 
f 30/114/20 29/56/20 53/115/20 
f 30/114/27 53/115/27 58/116/27 
f 30/114/20 58/116/20 34/117/20 
f 59/118/20 52/119/20 51/120/20 
f 51/120/20 60/121/20 59/118/20 
f 55/109/20 49/108/20 48/113/20 
f 48/113/20 57/112/20 55/109/20 
f 60/121/20 51/120/20 50/107/20 
f 50/107/20 54/106/20 60/121/20 
f 58/116/20 53/115/20 52/119/20 
f 52/119/20 59/118/20 58/116/20 
f 61/122/22 62/123/22 63/124/22 
f 63/124/22 38/125/22 61/122/22 
f 37/125/19 64/126/19 65/127/19 
f 65/127/19 66/122/19 37/125/19 
f 35/128/19 67/129/19 68/130/19 
f 68/130/19 59/131/19 35/128/19 
f 35/132/20 59/118/20 60/121/20 
f 35/132/20 60/121/20 69/133/20 
f 35/132/20 69/133/20 70/134/20 
f 35/132/20 70/134/20 71/135/20 
f 35/132/20 71/135/20 72/136/20 
f 35/132/20 72/136/20 36/137/20 
f 39/138/28 73/139/28 74/140/28 
f 39/138/28 74/140/28 75/141/28 
f 39/138/28 75/141/28 76/142/28 
f 39/138/29 76/142/29 57/112/29 
f 39/138/20 57/112/20 56/110/20 
f 39/138/20 56/110/20 40/143/20 
f 77/144/30 78/145/30 79/146/30 
f 79/146/30 74/147/30 77/144/30 
f 37/148/31 66/149/31 80/150/31 
f 37/148/31 80/150/31 81/151/31 
f 37/148/31 81/151/31 82/152/31 
f 37/148/32 82/152/32 54/106/32 
f 37/148/20 54/106/20 55/109/20 
f 37/148/33 55/109/33 83/153/33 
f 37/148/20 83/153/20 84/154/20 
f 37/148/20 84/154/20 77/155/20 
f 37/148/20 77/155/20 61/156/20 
f 37/148/20 61/156/20 38/157/20 
f 84/154/20 83/153/20 76/142/20 
f 76/142/20 75/141/20 84/154/20 
f 61/156/20 77/155/20 74/140/20 
f 74/140/20 73/139/20 61/156/20 
f 72/158/22 85/159/22 86/160/22 
f 86/160/22 36/124/22 72/158/22 
f 82/161/34 87/162/34 88/163/34 
f 88/163/34 54/164/34 82/161/34 
f 70/134/20 69/133/20 82/152/20 
f 82/152/20 81/151/20 70/134/20 
f 72/136/20 71/135/20 80/150/20 
f 80/150/20 66/149/20 72/136/20 
f 71/165/35 89/166/35 90/167/35 
f 90/167/30 80/168/30 71/165/30 
f 76/169/19 91/170/19 92/171/19 
f 92/171/19 57/172/19 76/169/19 
f 93/173/20 94/174/20 68/175/20 
f 68/175/20 67/176/20 93/173/20 
f 95/177/20 96/178/20 88/179/20 
f 88/179/20 87/180/20 95/177/20 
f 97/181/20 98/182/20 92/180/20 
f 92/180/20 91/183/20 97/181/20 
f 99/174/20 100/173/20 101/184/20 
f 101/184/20 102/185/20 99/174/20 
f 63/186/20 62/187/20 103/188/20 
f 103/188/20 104/176/20 63/186/20 
f 78/189/20 105/188/20 106/187/20 
f 106/187/20 79/190/20 78/189/20 
f 86/184/20 85/191/20 65/192/20 
f 65/192/20 64/193/20 86/184/20 
f 89/191/20 107/194/20 108/195/20 
f 108/195/20 90/192/20 89/191/20 
f 59/196/36 68/197/36 94/198/36 
f 94/198/36 58/199/36 59/196/36 
f 66/200/37 65/201/37 85/202/37 
f 85/202/38 72/203/38 66/200/38 
f 39/126/34 104/204/34 103/197/34 
f 103/197/34 73/205/34 39/126/34 
f 54/206/38 88/207/38 96/208/38 
f 96/208/38 60/209/38 54/206/38 
f 70/210/22 107/211/22 89/212/22 
f 89/212/22 71/213/22 70/210/22 
f 73/214/37 103/146/37 62/145/37 
f 62/145/37 61/215/37 73/214/37 
f 40/82/17 99/216/17 102/217/17 
f 102/217/17 31/83/17 40/82/17 
f 57/218/38 92/219/38 98/220/38 
f 98/220/38 55/221/38 57/218/38 
f 80/222/19 90/210/19 108/223/19 
f 108/223/19 81/224/19 80/222/19 
f 84/225/22 105/171/22 78/226/22 
f 78/226/22 77/227/22 84/225/22 
f 81/201/26 108/206/26 107/209/26 
f 107/209/26 70/202/26 81/201/26 
f 74/228/19 79/225/19 106/229/19 
f 106/229/19 75/212/19 74/228/19 
f 75/219/25 106/214/25 105/215/25 
f 105/215/25 84/220/25 75/219/25 
f 34/76/17 93/230/17 67/231/17 
f 67/231/17 35/77/17 34/76/17 
f 32/232/39 101/196/39 100/233/39 
f 100/233/36 56/234/36 32/232/36 
f 55/172/22 98/235/22 97/236/22 
f 97/236/22 83/169/22 55/172/22 
f 31/129/19 102/232/19 101/237/19 
f 101/237/19 32/238/19 31/129/19 
f 56/239/40 100/240/40 99/241/40 
f 99/241/22 40/242/22 56/239/22 
f 69/243/17 95/208/17 87/207/17 
f 87/207/17 82/244/17 69/243/17 
f 36/78/17 86/245/17 64/246/17 
f 64/246/17 37/79/17 36/78/17 
f 58/247/22 94/128/22 93/248/22 
f 93/248/22 34/241/22 58/247/22 
f 83/221/17 97/249/17 91/85/17 
f 91/85/17 76/218/17 83/221/17 
f 38/80/41 63/250/41 104/251/41 
f 104/251/41 39/81/41 38/80/41 
f 60/252/22 96/163/22 95/162/22 
f 95/162/22 69/236/22 60/252/22 
# 180 faces

