# 3ds Max Wavefront OBJ Exporter v0.97b - (c)2007 guruware
# File Created: 09.01.2021 20:59:50

mtllib librero.mtl

#
# object Base
#

v  -9.9185 -39.6902 -50.0666
v  63.9579 -39.6902 -50.0666
v  63.9579 -21.2848 -50.0666
v  -9.9185 -21.2848 -50.0666
v  -11.4119 -20.3250 -51.3281
v  65.4512 -20.3250 -51.3281
v  65.4512 -42.9436 -51.3281
v  -11.4119 -42.9436 -51.3281
v  65.4512 -42.9436 -30.5889
v  65.4512 -20.3250 -30.5889
v  -11.4119 -42.9436 -30.5889
v  -11.4119 -20.3250 -30.5889
v  63.9579 -39.6902 -30.5889
v  -9.9185 -39.6902 -30.5889
v  63.9579 -21.2848 -30.5889
v  -9.9185 -21.2848 -30.5889
v  -9.9185 -19.3652 -50.0666
v  63.9579 -19.3652 -50.0666
v  63.9579 -0.9598 -50.0666
v  -9.9185 -0.9598 -50.0666
v  -11.4119 0.0000 -51.3281
v  65.4512 0.0000 -51.3281
v  65.4512 -0.0000 -30.5889
v  -11.4119 -0.0000 -30.5889
v  63.9579 -19.3652 -30.5889
v  -9.9185 -19.3652 -30.5889
v  63.9579 -0.9598 -30.5889
v  -9.9185 -0.9598 -30.5889
v  -9.9185 0.9598 -50.0666
v  63.9579 0.9598 -50.0666
v  63.9579 19.3652 -50.0666
v  -9.9185 19.3652 -50.0666
v  -11.4119 20.3250 -51.3280
v  65.4512 20.3250 -51.3280
v  65.4512 20.3250 -30.5889
v  -11.4119 20.3250 -30.5889
v  63.9579 0.9598 -30.5889
v  -9.9185 0.9598 -30.5889
v  63.9579 19.3652 -30.5889
v  -9.9185 19.3652 -30.5889
v  -9.9185 21.2848 -50.0666
v  63.9579 21.2848 -50.0666
v  63.9579 39.6902 -50.0666
v  -9.9185 39.6902 -50.0666
v  -11.4119 40.6500 -51.3280
v  65.4512 40.6500 -51.3280
v  65.4512 40.6500 -30.5889
v  -11.4119 40.6500 -30.5889
v  63.9579 21.2848 -30.5889
v  -9.9185 21.2848 -30.5889
v  63.9579 39.6902 -30.5889
v  -9.9185 39.6902 -30.5889
v  -9.9185 41.6098 -50.0666
v  63.9579 41.6098 -50.0666
v  63.9579 60.0152 -50.0666
v  -9.9185 60.0152 -50.0666
v  -12.0190 63.4034 -29.5265
v  66.0583 63.4034 -29.5265
v  66.0583 63.4034 -52.3905
v  -12.0190 63.4034 -52.3905
v  -11.4119 61.4436 -51.3280
v  65.4512 61.4436 -51.3280
v  65.4512 61.4436 -30.5889
v  -11.4119 61.4436 -30.5889
v  63.9579 41.6098 -30.5889
v  -9.9185 41.6098 -30.5889
v  63.9579 60.0152 -30.5889
v  -9.9185 60.0152 -30.5889
v  66.0583 61.4436 -29.5265
v  -12.0190 61.4436 -29.5265
v  66.0583 61.4436 -52.3905
v  -12.0190 61.4436 -52.3905
# 72 vertices

vn 0.0000 -0.0000 1.0000
vn 0.0000 0.0000 -1.0000
vn 1.0000 0.0000 0.0000
vn -1.0000 -0.0000 -0.0000
vn -0.0000 -0.0000 1.0000
vn 0.0000 1.0000 -0.0000
vn -1.0000 0.0000 -0.0000
vn 0.0000 -1.0000 -0.0000
vn 1.0000 0.0000 -0.0000
vn 0.0000 0.0000 1.0000
vn 0.0000 1.0000 0.0000
vn 1.0000 -0.0000 -0.0000
vn -1.0000 0.0000 0.0000
vn -0.0000 -1.0000 -0.0000
vn 0.0000 -1.0000 0.0000
vn 1.0000 -0.0000 0.0000
vn 0.0000 -0.0000 -1.0000
vn -1.0000 -0.0000 0.0000
# 18 vertex normals

vt 3.5402 0.0000 0.0000
vt 4.5402 0.0000 0.0000
vt 4.5402 0.2319 0.0000
vt 3.5402 0.2319 0.0000
vt -2.4331 0.2706 0.0000
vt -1.4331 0.2706 0.0000
vt -1.4331 0.0000 0.0000
vt -2.4331 0.0000 0.0000
vt -1.0116 0.0000 0.0000
vt -0.4915 0.0000 0.0000
vt -0.4915 0.2706 0.0000
vt -1.0116 0.2706 0.0000
vt -1.4442 0.0389 0.0000
vt -2.4220 0.0389 0.0000
vt -1.4442 0.2591 0.0000
vt -2.4220 0.2591 0.0000
vt -0.4738 0.9881 0.0000
vt -0.4738 0.0102 0.0000
vt 0.0406 0.0102 0.0000
vt 0.0406 0.9881 0.0000
vt 2.3883 0.0000 0.0000
vt 2.3883 0.2319 0.0000
vt 3.3883 0.2319 0.0000
vt 3.3883 0.0000 0.0000
vt 0.0546 -0.0009 0.0000
vt -0.4738 -0.0009 0.0000
vt -0.4738 0.9991 0.0000
vt 0.0546 0.9991 0.0000
vt 3.5402 0.2560 0.0000
vt 4.5402 0.2560 0.0000
vt 4.5402 0.4879 0.0000
vt 3.5402 0.4879 0.0000
vt -2.4331 0.5137 0.0000
vt -1.4331 0.5137 0.0000
vt -0.4915 0.5137 0.0000
vt -1.0116 0.5137 0.0000
vt -1.4442 0.2821 0.0000
vt -2.4220 0.2821 0.0000
vt -1.4442 0.5022 0.0000
vt -2.4220 0.5022 0.0000
vt 2.3883 0.2560 0.0000
vt 2.3883 0.4879 0.0000
vt 3.3883 0.4879 0.0000
vt 3.3883 0.2560 0.0000
vt 3.5402 0.5121 0.0000
vt 4.5402 0.5121 0.0000
vt 4.5402 0.7440 0.0000
vt 3.5402 0.7440 0.0000
vt -2.4331 0.7569 0.0000
vt -1.4331 0.7569 0.0000
vt -0.4915 0.7569 0.0000
vt -1.0116 0.7569 0.0000
vt -1.4442 0.5252 0.0000
vt -2.4220 0.5252 0.0000
vt -1.4442 0.7454 0.0000
vt -2.4220 0.7454 0.0000
vt 2.3883 0.5121 0.0000
vt 2.3883 0.7440 0.0000
vt 3.3883 0.7440 0.0000
vt 3.3883 0.5121 0.0000
vt 3.5402 0.7681 0.0000
vt 4.5402 0.7681 0.0000
vt 4.5402 1.0000 0.0000
vt 3.5402 1.0000 0.0000
vt -2.4331 1.0000 0.0000
vt -1.4331 1.0000 0.0000
vt -0.4915 1.0000 0.0000
vt -1.0116 1.0000 0.0000
vt -1.4442 0.7683 0.0000
vt -2.4220 0.7683 0.0000
vt -1.4442 0.9885 0.0000
vt -2.4220 0.9885 0.0000
vt 2.3883 0.7681 0.0000
vt 2.3883 1.0000 0.0000
vt 3.3883 1.0000 0.0000
vt 3.3883 0.7681 0.0000
vt 0.0108 0.0214 0.0000
vt 0.9892 0.0214 0.0000
vt 1.0000 -0.0000 0.0000
vt 0.0000 -0.0000 0.0000
vt 0.9892 0.9786 0.0000
vt 1.0000 1.0000 0.0000
vt 0.0108 0.9786 0.0000
vt 0.0000 1.0000 0.0000
vt 0.0155 0.4898 0.0000
vt 0.9845 0.4898 0.0000
vt 0.9845 0.5102 0.0000
vt 0.0155 0.5102 0.0000
vt 0.2380 0.4898 0.0000
vt 0.7301 0.4898 0.0000
vt 0.7301 0.5102 0.0000
vt 0.2380 0.5102 0.0000
# 92 texture coords

o Base
g Base
usemtl DarkWood_MAT
s off
f 1/1/1 2/2/1 3/3/1 
f 3/3/1 4/4/1 1/1/1 
f 5/5/2 6/6/2 7/7/2 
f 7/7/2 8/8/2 5/5/2 
f 9/9/3 7/10/3 6/11/3 
f 6/11/3 10/12/3 9/9/3 
f 8/10/4 11/9/4 12/12/4 
f 12/12/4 5/11/4 8/10/4 
usemtl LightWood_MAT
f 11/8/1 9/7/1 13/13/1 
f 13/13/1 14/14/1 11/8/1 
f 9/7/5 10/6/5 15/15/5 
f 15/15/5 13/13/5 9/7/5 
f 10/6/1 12/5/1 16/16/1 
f 16/16/1 15/15/1 10/6/1 
f 12/5/1 11/8/1 14/14/1 
f 14/14/1 16/16/1 12/5/1 
usemtl DarkWood_MAT
f 14/17/6 13/18/6 2/19/6 
f 2/19/6 1/20/6 14/17/6 
f 13/21/7 15/22/7 3/23/7 
f 3/23/7 2/24/7 13/21/7 
f 15/18/8 16/17/8 4/20/8 
f 4/20/8 3/19/8 15/18/8 
f 16/22/9 14/21/9 1/24/9 
f 1/24/9 4/23/9 16/22/9 
f 7/25/8 9/26/8 11/27/8 
f 11/27/8 8/28/8 7/25/8 
f 17/29/1 18/30/1 19/31/1 
f 19/31/1 20/32/1 17/29/1 
f 21/33/2 22/34/2 6/6/2 
f 6/6/2 5/5/2 21/33/2 
f 10/12/9 6/11/9 22/35/9 
f 22/35/9 23/36/9 10/12/9 
f 5/11/7 12/12/7 24/36/7 
f 24/36/7 21/35/7 5/11/7 
usemtl LightWood_MAT
f 12/5/10 10/6/10 25/37/10 
f 25/37/10 26/38/10 12/5/10 
f 10/6/5 23/34/5 27/39/5 
f 27/39/5 25/37/5 10/6/5 
f 23/34/1 24/33/1 28/40/1 
f 28/40/1 27/39/1 23/34/1 
f 24/33/1 12/5/1 26/38/1 
f 26/38/1 28/40/1 24/33/1 
usemtl DarkWood_MAT
f 26/17/11 25/18/11 18/19/11 
f 18/19/11 17/20/11 26/17/11 
f 25/41/7 27/42/7 19/43/7 
f 19/43/7 18/44/7 25/41/7 
f 27/18/8 28/17/8 20/20/8 
f 20/20/8 19/19/8 27/18/8 
f 28/42/9 26/41/9 17/44/9 
f 17/44/9 20/43/9 28/42/9 
f 29/45/1 30/46/1 31/47/1 
f 31/47/1 32/48/1 29/45/1 
f 33/49/2 34/50/2 22/34/2 
f 22/34/2 21/33/2 33/49/2 
f 23/36/9 22/35/9 34/51/9 
f 34/51/9 35/52/9 23/36/9 
f 21/35/7 24/36/7 36/52/7 
f 36/52/7 33/51/7 21/35/7 
usemtl LightWood_MAT
f 24/33/10 23/34/10 37/53/10 
f 37/53/10 38/54/10 24/33/10 
f 23/34/5 35/50/5 39/55/5 
f 39/55/5 37/53/5 23/34/5 
f 35/50/1 36/49/1 40/56/1 
f 40/56/1 39/55/1 35/50/1 
f 36/49/1 24/33/1 38/54/1 
f 38/54/1 40/56/1 36/49/1 
usemtl DarkWood_MAT
f 38/17/11 37/18/11 30/19/11 
f 30/19/11 29/20/11 38/17/11 
f 37/57/7 39/58/7 31/59/7 
f 31/59/7 30/60/7 37/57/7 
f 39/18/8 40/17/8 32/20/8 
f 32/20/8 31/19/8 39/18/8 
f 40/58/9 38/57/9 29/60/9 
f 29/60/9 32/59/9 40/58/9 
f 41/45/1 42/46/1 43/47/1 
f 43/47/1 44/48/1 41/45/1 
f 45/49/2 46/50/2 34/34/2 
f 34/34/2 33/33/2 45/49/2 
f 35/36/9 34/35/9 46/51/9 
f 46/51/9 47/52/9 35/36/9 
f 33/35/7 36/36/7 48/52/7 
f 48/52/7 45/51/7 33/35/7 
usemtl LightWood_MAT
f 36/33/10 35/34/10 49/53/10 
f 49/53/10 50/54/10 36/33/10 
f 35/34/5 47/50/5 51/55/5 
f 51/55/5 49/53/5 35/34/5 
f 47/50/1 48/49/1 52/56/1 
f 52/56/1 51/55/1 47/50/1 
f 48/49/1 36/33/1 50/54/1 
f 50/54/1 52/56/1 48/49/1 
usemtl DarkWood_MAT
f 50/17/11 49/18/11 42/19/11 
f 42/19/11 41/20/11 50/17/11 
f 49/57/7 51/58/7 43/59/7 
f 43/59/7 42/60/7 49/57/7 
f 51/18/8 52/17/8 44/20/8 
f 44/20/8 43/19/8 51/18/8 
f 52/58/9 50/57/9 41/60/9 
f 41/60/9 44/59/9 52/58/9 
f 53/61/1 54/62/1 55/63/1 
f 55/63/1 56/64/1 53/61/1 
f 57/27/11 58/26/11 59/25/11 
f 59/25/11 60/28/11 57/27/11 
f 61/65/2 62/66/2 46/50/2 
f 46/50/2 45/49/2 61/65/2 
f 47/52/12 46/51/12 62/67/12 
f 62/67/12 63/68/12 47/52/12 
f 45/51/13 48/52/13 64/68/13 
f 64/68/13 61/67/13 45/51/13 
usemtl LightWood_MAT
f 48/49/10 47/50/10 65/69/10 
f 65/69/10 66/70/10 48/49/10 
f 47/50/5 63/66/5 67/71/5 
f 67/71/5 65/69/5 47/50/5 
f 63/66/1 64/65/1 68/72/1 
f 68/72/1 67/71/1 63/66/1 
f 64/65/1 48/49/1 66/70/1 
f 66/70/1 68/72/1 64/65/1 
usemtl DarkWood_MAT
f 66/17/11 65/18/11 54/19/11 
f 54/19/11 53/20/11 66/17/11 
f 65/73/7 67/74/7 55/75/7 
f 55/75/7 54/76/7 65/73/7 
f 67/18/8 68/17/8 56/20/8 
f 56/20/8 55/19/8 67/18/8 
f 68/74/9 66/73/9 53/76/9 
f 53/76/9 56/75/9 68/74/9 
usemtl LightWood_MAT
f 64/77/8 63/78/8 69/79/8 
f 69/79/8 70/80/8 64/77/8 
f 63/78/14 62/81/14 71/82/14 
f 71/82/14 69/79/14 63/78/14 
f 62/81/15 61/83/15 72/84/15 
f 72/84/15 71/82/15 62/81/15 
f 61/83/15 64/77/15 70/80/15 
f 70/80/15 72/84/15 61/83/15 
f 70/85/1 69/86/1 58/87/1 
f 58/87/1 57/88/1 70/85/1 
f 69/89/16 71/90/16 59/91/16 
f 59/91/16 58/92/16 69/89/16 
f 71/86/17 72/85/17 60/88/17 
f 60/88/17 59/87/17 71/86/17 
f 72/90/18 70/89/18 57/92/18 
f 57/92/18 60/91/18 72/90/18 
# 140 faces

#
# object BookCollection01
#

v  -9.7931 1.0437 -36.2997
v  13.5987 1.0437 -36.2997
v  13.5987 17.2912 -36.2997
v  -9.7931 17.2912 -36.2997
v  13.5987 17.2912 -47.4671
v  -9.7931 17.2912 -47.4671
v  13.5987 1.0437 -47.4671
v  -9.7931 1.0437 -47.4671
# 8 vertices

vn 0.0000 -0.0000 1.0000
vn 0.0000 1.0000 0.0000
vn 1.0000 0.0000 -0.0000
vn -1.0000 0.0000 -0.0000
# 4 vertex normals

vt 0.0000 0.0000 0.0000
vt 1.0000 0.0000 0.0000
vt 1.0000 1.0000 0.0000
vt 0.0000 1.0000 0.0000
# 4 texture coords

o BookCollection01
g BookCollection01
usemtl Books_MAT
s off
f 73/93/19 74/94/19 75/95/19 
f 75/95/19 76/96/19 73/93/19 
f 76/96/20 75/95/20 77/95/20 
f 77/95/20 78/96/20 76/96/20 
f 74/94/21 79/94/21 77/95/21 
f 77/95/21 75/95/21 74/94/21 
f 80/93/22 73/93/22 76/96/22 
f 76/96/22 78/96/22 80/93/22 
# 8 faces

#
# object BookCollection02
#

v  40.2330 -39.6807 -36.2997
v  63.6248 -39.6807 -36.2997
v  63.6248 -23.4332 -36.2997
v  40.2330 -23.4332 -36.2997
v  63.6248 -23.4332 -47.4671
v  40.2330 -23.4332 -47.4671
v  63.6248 -39.6807 -47.4671
v  40.2330 -39.6807 -47.4671
# 8 vertices

vn 0.0000 -0.0000 1.0000
vn 0.0000 1.0000 0.0000
vn 1.0000 0.0000 -0.0000
vn -1.0000 0.0000 -0.0000
# 4 vertex normals

vt 0.0000 0.0000 0.0000
vt 1.0000 0.0000 0.0000
vt 1.0000 1.0000 0.0000
vt 0.0000 1.0000 0.0000
# 4 texture coords

o BookCollection02
g BookCollection02
usemtl Books_MAT
s off
f 81/97/23 82/98/23 83/99/23 
f 83/99/23 84/100/23 81/97/23 
f 84/100/24 83/99/24 85/99/24 
f 85/99/24 86/100/24 84/100/24 
f 82/98/25 87/98/25 85/99/25 
f 85/99/25 83/99/25 82/98/25 
f 88/97/26 81/97/26 84/100/26 
f 84/100/26 86/100/26 88/97/26 
# 8 faces

#
# object BookCollection03
#

v  36.6080 21.2593 -36.2997
v  59.9998 21.2593 -36.2997
v  59.9998 37.5068 -36.2997
v  36.6080 37.5068 -36.2997
v  59.9998 37.5068 -47.4671
v  36.6080 37.5068 -47.4671
v  59.9998 21.2593 -47.4671
v  36.6080 21.2593 -47.4671
# 8 vertices

vn 0.0000 -0.0000 1.0000
vn 0.0000 1.0000 0.0000
vn 1.0000 0.0000 -0.0000
vn -1.0000 0.0000 -0.0000
# 4 vertex normals

vt 0.0000 0.0000 0.0000
vt 1.0000 0.0000 0.0000
vt 1.0000 1.0000 0.0000
vt 0.0000 1.0000 0.0000
# 4 texture coords

o BookCollection03
g BookCollection03
usemtl Books_MAT
s off
f 89/101/27 90/102/27 91/103/27 
f 91/103/27 92/104/27 89/101/27 
f 92/104/28 91/103/28 93/103/28 
f 93/103/28 94/104/28 92/104/28 
f 90/102/29 95/102/29 93/103/29 
f 93/103/29 91/103/29 90/102/29 
f 96/101/30 89/101/30 92/104/30 
f 92/104/30 94/104/30 96/101/30 
# 8 faces

#
# object Book007
#

v  30.0127 21.9120 -38.0726
v  32.3312 21.2821 -38.0726
v  36.5909 36.9613 -38.0726
v  34.2723 37.5912 -38.0726
v  36.5909 36.9613 -49.2400
v  34.2723 37.5912 -49.2400
v  32.3312 21.2821 -49.2400
v  30.0127 21.9120 -49.2400
# 8 vertices

vn 0.0000 -0.0000 1.0000
vn 0.2622 0.9650 0.0000
vn 0.0000 0.0000 -1.0000
vn -0.2622 -0.9650 -0.0000
vn 0.9650 -0.2622 -0.0000
vn -0.9650 0.2622 0.0000
# 6 vertex normals

vt 0.4171 0.0000 0.0000
vt 0.5316 0.0000 0.0000
vt 0.5316 1.0000 0.0000
vt 0.4171 1.0000 0.0000
vt 0.5304 -0.0000 0.0000
vt 0.4206 -0.0000 0.0000
vt 0.4206 0.9614 0.0000
vt 0.5304 0.9614 0.0000
vt 0.4206 0.0386 0.0000
vt 0.5304 0.0386 0.0000
vt 0.5304 1.0000 0.0000
vt 0.4206 1.0000 0.0000
# 12 texture coords

o Book007
g Book007
usemtl Books_MAT
s off
f 97/105/31 98/106/31 99/107/31 
f 99/107/31 100/108/31 97/105/31 
f 100/108/32 99/107/32 101/107/32 
f 101/107/32 102/108/32 100/108/32 
f 102/108/33 101/107/33 103/106/33 
f 103/106/33 104/105/33 102/108/33 
f 104/105/34 103/106/34 98/106/34 
f 98/106/34 97/105/34 104/105/34 
f 98/109/35 103/110/35 101/111/35 
f 101/111/35 99/112/35 98/109/35 
f 104/113/36 97/114/36 100/115/36 
f 100/115/36 102/116/36 104/113/36 
# 12 faces

#
# object Book006
#

v  19.1979 0.9544 -35.1360
v  21.4556 1.7761 -35.1360
v  15.8986 17.0437 -35.1360
v  13.6409 16.2220 -35.1360
v  15.8986 17.0437 -46.3033
v  13.6409 16.2220 -46.3033
v  21.4556 1.7761 -46.3033
v  19.1979 0.9544 -46.3033
# 8 vertices

vn 0.0000 -0.0000 1.0000
vn -0.3420 0.9397 0.0000
vn 0.0000 0.0000 -1.0000
vn 0.3420 -0.9397 -0.0000
vn 0.9397 0.3420 0.0000
vn -0.9397 -0.3420 -0.0000
# 6 vertex normals

vt 0.2068 0.0000 0.0000
vt 0.3293 0.0000 0.0000
vt 0.3293 1.0000 0.0000
vt 0.2068 1.0000 0.0000
vt 0.2105 -0.0000 0.0000
vt 0.3280 -0.0000 0.0000
vt 0.3280 1.0000 0.0000
vt 0.2105 1.0000 0.0000
vt 0.2105 0.0000 0.0000
vt 0.3280 0.0000 0.0000
# 10 texture coords

o Book006
g Book006
usemtl Books_MAT
s off
f 105/117/37 106/118/37 107/119/37 
f 107/119/37 108/120/37 105/117/37 
f 108/120/38 107/119/38 109/119/38 
f 109/119/38 110/120/38 108/120/38 
f 110/120/39 109/119/39 111/118/39 
f 111/118/39 112/117/39 110/120/39 
f 112/117/40 111/118/40 106/118/40 
f 106/118/40 105/117/40 112/117/40 
f 106/121/41 111/122/41 109/123/41 
f 109/123/41 107/124/41 106/121/41 
f 112/125/42 105/126/42 108/123/42 
f 108/123/42 110/124/42 112/125/42 
# 12 faces

#
# object Book005
#

v  25.7345 0.9253 -36.6600
v  27.1000 1.8814 -36.6600
v  18.8820 13.6181 -36.6600
v  17.5164 12.6619 -36.6600
v  18.8820 13.6181 -46.2840
v  17.5164 12.6619 -46.2840
v  27.1000 1.8814 -46.2840
v  25.7345 0.9253 -46.2840
# 8 vertices

vn -0.0000 -0.0000 1.0000
vn -0.5736 0.8192 0.0000
vn -0.0000 0.0000 -1.0000
vn 0.5736 -0.8192 -0.0000
vn 0.8192 0.5736 0.0000
vn -0.8192 -0.5736 -0.0000
# 6 vertex normals

vt 0.3335 0.0000 0.0000
vt 0.4162 0.0000 0.0000
vt 0.4162 1.0000 0.0000
vt 0.3335 1.0000 0.0000
vt 0.3360 -0.0000 0.0000
vt 0.4153 -0.0000 0.0000
vt 0.4153 1.0000 0.0000
vt 0.3360 1.0000 0.0000
vt 0.3360 0.0000 0.0000
vt 0.4153 0.0000 0.0000
# 10 texture coords

o Book005
g Book005
usemtl Books_MAT
s off
f 113/127/43 114/128/43 115/129/43 
f 115/129/43 116/130/43 113/127/43 
f 116/130/44 115/129/44 117/129/44 
f 117/129/44 118/130/44 116/130/44 
f 118/130/45 117/129/45 119/128/45 
f 119/128/45 120/127/45 118/130/45 
f 120/127/46 119/128/46 114/128/46 
f 114/128/46 113/127/46 120/127/46 
f 114/131/47 119/132/47 117/133/47 
f 117/133/47 115/134/47 114/131/47 
f 120/135/48 113/136/48 116/133/48 
f 116/133/48 118/134/48 120/135/48 
# 12 faces

#
# object Book004
#

v  32.2483 -38.9224 -34.7103
v  34.5060 -39.7441 -34.7103
v  40.0629 -24.4765 -34.7103
v  37.8052 -23.6547 -34.7103
v  40.0629 -24.4765 -45.8777
v  37.8052 -23.6547 -45.8777
v  34.5060 -39.7441 -45.8777
v  32.2483 -38.9224 -45.8777
# 8 vertices

vn 0.0000 -0.0000 1.0000
vn 0.3420 0.9397 0.0000
vn 0.0000 0.0000 -1.0000
vn -0.3420 -0.9397 -0.0000
vn 0.9397 -0.3420 -0.0000
vn -0.9397 0.3420 0.0000
# 6 vertex normals

vt 0.7159 0.0000 0.0000
vt 0.8018 0.0000 0.0000
vt 0.8018 1.0000 0.0000
vt 0.7159 1.0000 0.0000
vt 0.7185 -0.0000 0.0000
vt 0.8009 -0.0000 0.0000
vt 0.8009 1.0000 0.0000
vt 0.7185 1.0000 0.0000
vt 0.7185 0.0000 0.0000
vt 0.8009 0.0000 0.0000
# 10 texture coords

o Book004
g Book004
usemtl Books_MAT
s off
f 121/137/49 122/138/49 123/139/49 
f 123/139/49 124/140/49 121/137/49 
f 124/140/50 123/139/50 125/139/50 
f 125/139/50 126/140/50 124/140/50 
f 126/140/51 125/139/51 127/138/51 
f 127/138/51 128/137/51 126/140/51 
f 128/137/52 127/138/52 122/138/52 
f 122/138/52 121/137/52 128/137/52 
f 122/141/53 127/142/53 125/143/53 
f 125/143/53 123/144/53 122/141/53 
f 128/145/54 121/146/54 124/143/54 
f 124/143/54 126/144/54 128/145/54 
# 12 faces

#
# object BookCollection04
#

v  -9.7931 41.6041 -37.6961
v  13.5987 41.6041 -37.6961
v  13.5987 57.8517 -37.6961
v  -9.7931 57.8517 -37.6961
v  13.5987 57.8517 -48.8634
v  -9.7931 57.8517 -48.8634
v  13.5987 41.6041 -48.8634
v  -9.7931 41.6041 -48.8634
# 8 vertices

vn 0.0000 -0.0000 1.0000
vn 0.0000 1.0000 0.0000
vn 1.0000 0.0000 -0.0000
vn -1.0000 0.0000 -0.0000
# 4 vertex normals

vt 0.0000 0.0000 0.0000
vt 1.0000 0.0000 0.0000
vt 1.0000 1.0000 0.0000
vt 0.0000 1.0000 0.0000
# 4 texture coords

o BookCollection04
g BookCollection04
usemtl Books_MAT
s off
f 129/147/55 130/148/55 131/149/55 
f 131/149/55 132/150/55 129/147/55 
f 132/150/56 131/149/56 133/149/56 
f 133/149/56 134/150/56 132/150/56 
f 130/148/57 135/148/57 133/149/57 
f 133/149/57 131/149/57 130/148/57 
f 136/147/58 129/147/58 132/150/58 
f 132/150/58 134/150/58 136/147/58 
# 8 faces

#
# object Book003
#

v  27.6393 41.6302 -32.9265
v  27.6393 43.2973 -32.9265
v  14.0097 43.2973 -37.3443
v  14.0097 41.6302 -37.3443
v  16.9771 43.2973 -46.4994
v  16.9771 41.6302 -46.4994
v  30.6068 43.2973 -42.0815
v  30.6068 41.6302 -42.0815
# 8 vertices

vn -0.3083 -0.0000 0.9513
vn -0.9513 0.0000 -0.3083
vn 0.3083 0.0000 -0.9513
vn 0.9513 -0.0000 0.3083
vn 0.0000 1.0000 0.0000
vn -0.0000 -1.0000 -0.0000
# 6 vertex normals

vt 0.3335 0.0000 0.0000
vt 0.4162 0.0000 0.0000
vt 0.4162 1.0000 0.0000
vt 0.3335 1.0000 0.0000
vt 0.3360 -0.0000 0.0000
vt 0.4153 -0.0000 0.0000
vt 0.4153 1.0000 0.0000
vt 0.3360 1.0000 0.0000
vt 0.3360 0.0000 0.0000
vt 0.4153 0.0000 0.0000
# 10 texture coords

o Book003
g Book003
usemtl Books_MAT
s off
f 137/151/59 138/152/59 139/153/59 
f 139/153/59 140/154/59 137/151/59 
f 140/154/60 139/153/60 141/153/60 
f 141/153/60 142/154/60 140/154/60 
f 142/154/61 141/153/61 143/152/61 
f 143/152/61 144/151/61 142/154/61 
f 144/151/62 143/152/62 138/152/62 
f 138/152/62 137/151/62 144/151/62 
f 138/155/63 143/156/63 141/157/63 
f 141/157/63 139/158/63 138/155/63 
f 144/159/64 137/160/64 140/157/64 
f 140/157/64 142/158/64 144/159/64 
# 12 faces

#
# object BookCollection05
#

v  8.8962 -19.5028 -36.2997
v  32.2880 -19.5028 -36.2997
v  32.2880 -3.2553 -36.2997
v  8.8962 -3.2553 -36.2997
v  32.2880 -3.2553 -47.4671
v  8.8962 -3.2553 -47.4671
v  32.2880 -19.5028 -47.4671
v  8.8962 -19.5028 -47.4671
# 8 vertices

vn 0.0000 -0.0000 1.0000
vn 0.0000 1.0000 0.0000
vn 1.0000 0.0000 -0.0000
vn -1.0000 0.0000 -0.0000
# 4 vertex normals

vt 0.0000 0.0000 0.0000
vt 1.0000 0.0000 0.0000
vt 1.0000 1.0000 0.0000
vt 0.0000 1.0000 0.0000
# 4 texture coords

o BookCollection05
g BookCollection05
usemtl Books_MAT
s off
f 145/161/65 146/162/65 147/163/65 
f 147/163/65 148/164/65 145/161/65 
f 148/164/66 147/163/66 149/163/66 
f 149/163/66 150/164/66 148/164/66 
f 146/162/67 151/162/67 149/163/67 
f 149/163/67 147/163/67 146/162/67 
f 152/161/68 145/161/68 148/164/68 
f 148/164/68 150/164/68 152/161/68 
# 8 faces

#
# object Book002
#

v  5.0279 -19.4306 -28.7989
v  5.0279 -17.7636 -28.7989
v  -8.6018 -17.7636 -33.2167
v  -8.6018 -19.4306 -33.2167
v  -5.6343 -17.7636 -42.3717
v  -5.6343 -19.4306 -42.3717
v  7.9953 -17.7636 -37.9539
v  7.9953 -19.4306 -37.9539
# 8 vertices

vn -0.3083 -0.0000 0.9513
vn -0.9513 0.0000 -0.3083
vn 0.3083 -0.0000 -0.9513
vn 0.9513 -0.0000 0.3083
vn 0.0000 1.0000 0.0000
vn -0.0000 -1.0000 -0.0000
# 6 vertex normals

vt 0.1153 0.0000 0.0000
vt 0.2037 0.0000 0.0000
vt 0.2037 1.0000 0.0000
vt 0.1153 1.0000 0.0000
vt 0.1180 -0.0000 0.0000
vt 0.2028 -0.0000 0.0000
vt 0.2028 1.0000 0.0000
vt 0.1180 1.0000 0.0000
vt 0.1180 0.0000 0.0000
vt 0.2028 0.0000 0.0000
# 10 texture coords

o Book002
g Book002
usemtl Books_MAT
s off
f 153/165/69 154/166/69 155/167/69 
f 155/167/69 156/168/69 153/165/69 
f 156/168/70 155/167/70 157/167/70 
f 157/167/70 158/168/70 156/168/70 
f 158/168/71 157/167/71 159/166/71 
f 159/166/71 160/165/71 158/168/71 
f 160/165/72 159/166/72 154/166/72 
f 154/166/72 153/165/72 160/165/72 
f 154/169/73 159/170/73 157/171/73 
f 157/171/73 155/172/73 154/169/73 
f 160/173/74 153/174/74 156/171/74 
f 156/171/74 158/172/74 160/173/74 
# 12 faces

#
# object Book001
#

v  38.4475 -19.5559 -34.3161
v  39.9584 -18.8514 -34.3161
v  33.9032 -5.8660 -34.3161
v  32.3924 -6.5705 -34.3161
v  33.9032 -5.8660 -43.9401
v  32.3924 -6.5705 -43.9401
v  39.9584 -18.8514 -43.9401
v  38.4475 -19.5559 -43.9401
# 8 vertices

vn 0.0000 -0.0000 1.0000
vn -0.4226 0.9063 0.0000
vn 0.0000 0.0000 -1.0000
vn 0.4226 -0.9063 -0.0000
vn 0.9063 0.4226 0.0000
vn -0.9063 -0.4226 -0.0000
# 6 vertex normals

vt 0.1153 0.0000 0.0000
vt 0.2037 0.0000 0.0000
vt 0.2037 1.0000 0.0000
vt 0.1153 1.0000 0.0000
vt 0.1180 -0.0000 0.0000
vt 0.2028 -0.0000 0.0000
vt 0.2028 1.0000 0.0000
vt 0.1180 1.0000 0.0000
vt 0.1180 0.0000 0.0000
vt 0.2028 0.0000 0.0000
# 10 texture coords

o Book001
g Book001
usemtl Books_MAT
s off
f 161/175/75 162/176/75 163/177/75 
f 163/177/75 164/178/75 161/175/75 
f 164/178/76 163/177/76 165/177/76 
f 165/177/76 166/178/76 164/178/76 
f 166/178/77 165/177/77 167/176/77 
f 167/176/77 168/175/77 166/178/77 
f 168/175/78 167/176/78 162/176/78 
f 162/176/78 161/175/78 168/175/78 
f 162/179/79 167/180/79 165/181/79 
f 165/181/79 163/182/79 162/179/79 
f 168/183/80 161/184/80 164/181/80 
f 164/181/80 166/182/80 168/183/80 
# 12 faces

